<svg width="60" height="61" viewBox="0 0 60 61" fill="none" xmlns="http://www.w3.org/2000/svg">
<g clip-path="url(#clip0_3709_52)">
<path d="M48.75 23C54.9632 23 60 17.9632 60 11.75C60 5.5368 54.9632 0.5 48.75 0.5C42.5368 0.5 37.5 5.5368 37.5 11.75C37.5 17.9632 42.5368 23 48.75 23Z" fill="#FFC107"/>
<path d="M48.75 19.25C48.63 19.25 48.51 19.25 48.3825 19.2537C46.635 10.58 39.0338 4.25 30 4.25C22.4963 4.25 15.7613 8.71625 12.81 15.5037C5.71875 15.6725 0 21.4925 0 28.625C0 35.8625 5.8875 41.75 13.125 41.75H48.75C54.9525 41.75 60 36.7025 60 30.5C60 24.2975 54.9525 19.25 48.75 19.25Z" fill="#E3F2FD"/>
</g>
<defs>
<clipPath id="clip0_3709_52">
<rect width="60" height="60" fill="white" transform="translate(0 0.5)"/>
</clipPath>
</defs>
</svg>
