<svg width="60" height="61" viewBox="0 0 60 61" fill="none" xmlns="http://www.w3.org/2000/svg">
<g clip-path="url(#clip0_3709_375)">
<path d="M48.75 19.25C48.63 19.25 48.51 19.25 48.3825 19.2537C46.635 10.58 39.0338 4.25 30 4.25C22.4963 4.25 15.7613 8.71625 12.81 15.5037C5.71875 15.6725 0 21.4925 0 28.625C0 35.8625 5.8875 41.75 13.125 41.75H48.75C54.9525 41.75 60 36.7025 60 30.5C60 24.2975 54.9525 19.25 48.75 19.25Z" fill="#E3F2FD"/>
<path d="M32.2426 34.25C31.7214 33.35 30.5739 33.0425 29.6814 33.5638L24.3751 36.6275V30.5C24.3751 29.465 23.5351 28.625 22.5001 28.625C21.4651 28.625 20.6251 29.465 20.6251 30.5V36.6275L15.3189 33.5638C14.4226 33.0425 13.2751 33.35 12.7576 34.25C12.2401 35.1462 12.5476 36.2937 13.4439 36.8112L18.7539 39.875L13.4439 42.9388C12.5476 43.4563 12.2401 44.6038 12.7576 45.5C13.1064 46.1 13.7364 46.4375 14.3851 46.4375C14.7039 46.4375 15.0264 46.3587 15.3226 46.1862L20.6251 43.1225V49.25C20.6251 50.285 21.4651 51.125 22.5001 51.125C23.5351 51.125 24.3751 50.285 24.3751 49.25V43.1225L29.6814 46.1862C29.9776 46.3587 30.3001 46.4375 30.6189 46.4375C31.2676 46.4375 31.8976 46.1 32.2464 45.5C32.7639 44.6038 32.4564 43.4563 31.5601 42.9388L26.2464 39.875L31.5564 36.8112C32.4526 36.2937 32.7601 35.1462 32.2426 34.25Z" fill="#CFD8DC"/>
<path d="M48.9343 54.1888L46.8718 53L48.9343 51.8112C49.8305 51.2937 50.138 50.15 49.6205 49.25C49.103 48.35 47.9555 48.0425 47.0593 48.5638L45.0005 49.7525V47.375C45.0005 46.34 44.1605 45.5 43.1255 45.5C42.0905 45.5 41.2505 46.34 41.2505 47.375V49.7525L39.1918 48.5638C38.2993 48.0463 37.148 48.3537 36.6343 49.25C36.113 50.1462 36.4205 51.2937 37.3205 51.8112L39.3793 53L37.3168 54.1888C36.4205 54.7063 36.113 55.8538 36.6343 56.75C36.9793 57.35 37.613 57.6875 38.258 57.6875C38.5768 57.6875 38.8993 57.6087 39.1955 57.4362L41.2505 56.2475V58.625C41.2505 59.66 42.0905 60.5 43.1255 60.5C44.1605 60.5 45.0005 59.66 45.0005 58.625V56.2475L47.0593 57.4362C47.3555 57.6087 47.678 57.6875 47.9968 57.6875C48.6418 57.6875 49.2755 57.35 49.6205 56.75C50.138 55.8538 49.8305 54.7063 48.9343 54.1888Z" fill="#CFD8DC"/>
</g>
<defs>
<clipPath id="clip0_3709_375">
<rect width="60" height="60" fill="white" transform="translate(0 0.5)"/>
</clipPath>
</defs>
</svg>
