<svg width="70" height="70" viewBox="0 0 70 70" fill="none" xmlns="http://www.w3.org/2000/svg">
<path d="M56.875 26.25C64.1237 26.25 70 20.3737 70 13.125C70 5.87626 64.1237 0 56.875 0C49.6263 0 43.75 5.87626 43.75 13.125C43.75 20.3737 49.6263 26.25 56.875 26.25Z" fill="#FFC107"/>
<path d="M56.875 22.0902C56.735 22.0902 56.595 22.0902 56.4463 22.0945C54.4075 11.9752 45.5394 4.59016 35 4.59016C26.2456 4.59016 18.3881 9.80079 14.945 17.7195C6.67187 17.9164 0 24.7064 0 33.0277C0 41.4714 6.86875 48.3402 15.3125 48.3402H56.875C64.1113 48.3402 70 42.4514 70 35.2152C70 27.9789 64.1113 22.0902 56.875 22.0902Z" fill="#E3F2FD"/>
<path d="M37.6165 39.375C37.0084 38.325 35.6696 37.9663 34.6284 38.5744L28.4377 42.1487V35C28.4377 33.7925 27.4577 32.8125 26.2502 32.8125C25.0427 32.8125 24.0627 33.7925 24.0627 35V42.1487L17.8721 38.5744C16.8265 37.9663 15.4877 38.325 14.884 39.375C14.2802 40.4206 14.639 41.7594 15.6846 42.3631L21.8796 45.9375L15.6846 49.5119C14.639 50.1156 14.2802 51.4544 14.884 52.5C15.2909 53.2 16.0259 53.5938 16.7827 53.5938C17.1546 53.5938 17.5309 53.5019 17.8765 53.3006L24.0627 49.7263V56.875C24.0627 58.0825 25.0427 59.0625 26.2502 59.0625C27.4577 59.0625 28.4377 58.0825 28.4377 56.875V49.7263L34.6284 53.3006C34.974 53.5019 35.3502 53.5938 35.7221 53.5938C36.479 53.5938 37.214 53.2 37.6209 52.5C38.2246 51.4544 37.8659 50.1156 36.8202 49.5119L30.6209 45.9375L36.8159 42.3631C37.8615 41.7594 38.2202 40.4206 37.6165 39.375Z" fill="#CFD8DC"/>
<path d="M57.0898 62.6369L54.6836 61.25L57.0898 59.8631C58.1355 59.2594 58.4942 57.925 57.8905 56.875C57.2867 55.825 55.948 55.4663 54.9023 56.0744L52.5005 57.4612V54.6875C52.5005 53.48 51.5205 52.5 50.313 52.5C49.1055 52.5 48.1255 53.48 48.1255 54.6875V57.4612L45.7236 56.0744C44.6823 55.4706 43.3392 55.8294 42.7398 56.875C42.1317 57.9206 42.4905 59.2594 43.5405 59.8631L45.9423 61.25L43.5361 62.6369C42.4905 63.2406 42.1317 64.5794 42.7398 65.625C43.1423 66.325 43.8817 66.7188 44.6342 66.7188C45.0061 66.7188 45.3823 66.6269 45.728 66.4256L48.1255 65.0388V67.8125C48.1255 69.02 49.1055 70 50.313 70C51.5205 70 52.5005 69.02 52.5005 67.8125V65.0388L54.9023 66.4256C55.248 66.6269 55.6242 66.7188 55.9961 66.7188C56.7486 66.7188 57.488 66.325 57.8905 65.625C58.4942 64.5794 58.1355 63.2406 57.0898 62.6369Z" fill="#CFD8DC"/>
</svg>
