<svg width="31" height="26" viewBox="0 0 31 26" fill="none" xmlns="http://www.w3.org/2000/svg">
    <path
            d="M30.547 14.8441V14.8284C30.547 14.7814 30.547 14.7344 30.547 14.6874V14.6248C30.547 14.5934 30.547 14.5464 30.547 14.5151C30.547 14.4837 30.547 14.4524 30.547 14.4211V14.2957C30.531 14.1547 30.531 13.998 30.515 13.8413L30.499 13.6846C30.499 13.6376 30.483 13.5906 30.483 13.5436C30.467 13.4496 30.451 13.3556 30.435 13.2616C30.2271 11.9925 29.7952 10.786 29.1714 9.67354C29.1555 9.62653 29.1235 9.5952 29.1075 9.54819C29.0755 9.50119 29.0595 9.46985 29.0275 9.42285C29.0275 9.42285 29.0275 9.40718 29.0115 9.40718L28.9955 9.37584C28.9795 9.3445 28.9475 9.2975 28.9315 9.26616C28.8676 9.15649 28.8036 9.06247 28.7556 8.98413C28.6916 8.87445 28.6116 8.76477 28.5317 8.65509C27.7959 7.65232 26.9003 6.77489 25.8766 6.05414C25.0769 5.50575 24.2292 5.05137 23.3175 4.72233C23.2696 4.70666 23.2056 4.70666 23.1576 4.738C23.1096 4.76934 23.0776 4.81634 23.0776 4.87901V6.33617C23.0776 6.39885 23.1256 6.46152 23.1736 6.49286C24.821 7.19794 26.2285 8.3574 27.2521 9.81456C27.3001 9.87723 27.3321 9.9399 27.3801 10.0026C27.4441 10.0966 27.508 10.1906 27.556 10.2846C27.604 10.3473 27.636 10.4256 27.684 10.504L27.748 10.6136C27.7799 10.6763 27.8279 10.7547 27.8599 10.8173V10.833C27.8919 10.8957 27.9239 10.9427 27.9399 11.0054C28.3397 11.8358 28.6116 12.7132 28.7556 13.6063C28.7716 13.669 28.7716 13.7317 28.7876 13.7943C28.8036 13.9197 28.8196 14.045 28.8356 14.1704C28.8356 14.2017 28.8356 14.2487 28.8516 14.28V14.2957C28.8516 14.3897 28.8676 14.4681 28.8676 14.5621V14.6718C28.8676 14.7031 28.8676 14.7344 28.8676 14.7658C28.8676 14.7971 28.8676 14.8284 28.8676 14.8598V14.8754C28.8676 14.9225 28.8676 14.9695 28.8676 15.0008C28.8676 17.3197 28.0199 19.4976 26.4524 21.2055V13.5906C26.4524 13.5123 26.4044 13.4496 26.3245 13.4183L22.3259 12.5409V0.162831C22.3259 0.115826 22.3099 0.0688199 22.2619 0.0374832C22.2139 0.00614639 22.166 -0.00952152 22.118 0.00614687L12.4574 2.13705C12.3775 2.15271 12.3295 2.21539 12.3295 2.3094V21.2211C12.0416 20.9078 11.7857 20.5787 11.5458 20.234C10.4741 18.6985 9.91435 16.8967 9.91435 15.0165C9.91435 14.9695 9.91435 14.9381 9.91435 14.8911C9.91435 14.8598 9.91435 14.8128 9.91435 14.7814C9.91435 14.7501 9.91435 14.7188 9.91435 14.6874C9.91435 14.6874 9.91435 14.6718 9.91435 14.6561C9.91435 14.6248 9.91435 14.5777 9.91435 14.5464C9.91435 14.4994 9.91435 14.4681 9.91435 14.4211C9.91435 14.3271 9.93034 14.2174 9.94633 14.1234C9.94633 14.1077 9.94633 14.1077 9.94633 14.092C10.1063 12.5722 10.6501 11.0994 11.5298 9.83022C11.5458 9.79889 11.5618 9.76755 11.5618 9.73622V7.58965C11.5618 7.52697 11.5138 7.4643 11.4498 7.43296C11.3858 7.40162 11.3058 7.41729 11.2579 7.47996C10.5061 8.24772 9.88236 9.12515 9.38653 10.0652C8.79475 11.2247 8.41088 12.4468 8.25094 13.7317L8.23495 13.8727C8.23495 13.8727 8.23495 13.8727 8.23495 13.8883C8.23495 13.9197 8.23495 13.9353 8.23495 13.9667L8.21895 14.045C8.20296 14.139 8.20296 14.233 8.20296 14.3271C8.20296 14.3741 8.20296 14.4367 8.18696 14.4837C8.18696 14.5307 8.18696 14.5777 8.18696 14.6404C8.18696 14.6718 8.18696 14.7188 8.18696 14.7501C8.18696 14.7971 8.18696 14.8598 8.18696 14.9068C8.18696 14.9538 8.18696 15.0165 8.18696 15.0635C8.18696 15.5492 8.21895 16.0506 8.28293 16.5363L0.797612 18.1815C0.701646 18.1971 0.653663 18.2912 0.669657 18.3852L0.973547 19.7013C0.989541 19.7483 1.00554 19.7797 1.05352 19.811C1.08551 19.8423 1.13349 19.8423 1.18147 19.8267L8.6508 18.1815C8.84273 18.8239 9.09864 19.4506 9.41852 20.046C9.91434 20.9861 10.5381 21.8479 11.2739 22.6156C11.7057 23.0543 12.1695 23.4774 12.6814 23.8378L13.785 24.6525C13.8329 24.6839 13.9129 24.6995 13.9609 24.6682C14.0249 24.6369 14.0569 24.5742 14.0569 24.5115V3.51586L20.6145 2.07437V12.1648L16.6799 11.3031C16.6319 11.2874 16.568 11.3031 16.536 11.3344C16.488 11.3657 16.472 11.4127 16.472 11.4597L16.456 25.5456C16.456 25.624 16.52 25.7023 16.6 25.718L17.1598 25.8276C17.8635 25.9687 18.5672 26 19.4149 26C20.1667 26 20.9184 25.9217 21.6541 25.7806L22.2139 25.671C22.2939 25.6553 22.3579 25.5926 22.3579 25.4986V14.28L24.773 14.8128V24.4802C24.773 24.5428 24.805 24.6055 24.869 24.6368C24.933 24.6682 24.9969 24.6525 25.0449 24.6212L26.1485 23.8064C27.508 22.8036 28.6436 21.4875 29.4114 20.0147C30.2271 18.4635 30.6269 16.787 30.6269 15.0165C30.547 14.9538 30.547 14.9068 30.547 14.8441ZM20.5345 24.2295C20.1347 24.2765 19.7348 24.3078 19.319 24.3078C18.8072 24.3078 18.4393 24.2921 18.1034 24.2608V13.3556L20.5185 13.8883L20.5345 24.2295Z"
            fill="url(#paint0_linear_2816_27121)"
    />
    <defs>
        <linearGradient id="paint0_linear_2816_27121" x1="0.601841" y1="12.9952" x2="30.5433" y2="12.9952" gradientUnits="userSpaceOnUse">
            <stop stop-color="#f2394d"/>
            <stop offset="0.5" stop-color="#ff394d"/>
            <stop offset="1" stop-color="#f2394d"/>
        </linearGradient>
    </defs>
</svg>
