<svg width="64" height="64" viewBox="0 0 64 64" fill="none" xmlns="http://www.w3.org/2000/svg">
<path d="M48.6171 45.9503L32 62.5674L15.3829 45.9503C12.0964 42.6637 9.85826 38.4764 8.95154 33.9179C8.04481 29.3593 8.5102 24.6343 10.2889 20.3402C12.0675 16.0462 15.0796 12.376 18.9441 9.79382C22.8087 7.21162 27.3522 5.83337 32 5.83337C36.6479 5.83337 41.1913 7.21162 45.0559 9.79382C48.9204 12.376 51.9325 16.0462 53.7111 20.3402C55.4898 24.6343 55.9552 29.3593 55.0485 33.9179C54.1418 38.4764 51.9036 42.6637 48.6171 45.9503ZM32 35.1665C33.5471 35.1665 35.0308 34.5519 36.1248 33.458C37.2188 32.364 37.8333 30.8803 37.8333 29.3332C37.8333 27.7861 37.2188 26.3023 36.1248 25.2084C35.0308 24.1144 33.5471 23.4998 32 23.4998C30.4529 23.4998 28.9692 24.1144 27.8752 25.2084C26.7813 26.3023 26.1667 27.7861 26.1667 29.3332C26.1667 30.8803 26.7813 32.364 27.8752 33.458C28.9692 34.5519 30.4529 35.1665 32 35.1665Z" fill="#F2394D" stroke="#F2394D"/>
</svg>
